<svg xmlns="http://www.w3.org/2000/svg" viewBox="0 0 512 512">
<style>path{fill:#0a0a0a}@media (prefers-color-scheme:dark){path{fill:#fafafa}}</style>
<path d="M0 0 C155.1 0 310.2 0 470 0 C470 154.77 470 309.54 470 469 C343.28 469 216.56 469 86 469 C86 483.19 86 497.38 86 512 C79.45 508.36 73.75 504.78 67.8 500.38 C65 499 65 499 62.66 499.43 C58.89 501.66 55.32 504.1 51.75 506.62 C50.31 507.64 48.87 508.65 47.42 509.66 C47.11 509.89 47.11 509.89 45.5 511.02 C44 512 44 512 43 512 C43 497.81 43 483.62 43 469 C28.81 469 14.62 469 0 469 C0 314.23 0 159.46 0 0 Z M43 43 C43 169.72 43 296.44 43 427 C146.29 427 249.58 427 356 427 C356 300.28 356 173.56 356 43 C252.71 43 149.42 43 43 43 Z M399 43 C399 75.67 399 108.34 399 142 C408.24 142 417.48 142 427 142 C427 109.33 427 76.66 427 43 C417.76 43 408.52 43 399 43 Z M399 185 C399 217.67 399 250.34 399 284 C408.24 284 417.48 284 427 284 C427 251.33 427 218.66 427 185 C417.76 185 408.52 185 399 185 Z M399 327 C399 360 399 393 399 427 C408.24 427 417.48 427 427 427 C427 394 427 361 427 327 C417.76 327 408.52 327 399 327 Z " transform="translate(21,0)"/>
<path d="M0 0 C2.65 -0.04 2.65 -0.04 16.06 -0.25 C17.72 -0.29 19.38 -0.32 21.09 -0.36 C22.43 -0.37 23.76 -0.38 25.1 -0.39 C25.44 -0.4 25.44 -0.4 27.15 -0.45 C33.82 -0.46 37.78 2.08 42.75 6.38 C47.31 11.7 49.17 17.04 49 24 C47.87 30.54 44.94 35.59 40 40 C34.32 43.48 29.26 44.13 22.69 44.06 C20.81 44.04 18.93 44.02 17 44 C17 50.27 17 56.54 17 63 C11.39 63 5.78 63 0 63 C0 42.21 0 21.42 0 0 Z M17 15 C17 19.29 17 23.58 17 28 C18.94 28.06 20.88 28.12 22.88 28.19 C23.97 28.22 25.06 28.26 26.18 28.29 C26.65 28.24 26.65 28.24 29 28 C31.46 24.31 31.39 22.37 31 18 C29.84 16.29 29.84 16.29 28 15 C25.3 14.71 25.3 14.71 22.31 14.81 C20.56 14.87 18.81 14.94 17 15 Z " transform="translate(88,164)"/>
<path d="M0 0 C7.15 6.67 10.69 14.19 11.12 24 C10.86 34.15 7.14 41.44 0.09 48.65 C-7.14 55.12 -16.4 57.13 -26.03 56.6 C-36.8 54.86 -43.83 48.21 -50.14 39.69 C-54.55 32 -54.54 22.27 -52.56 13.8 C-48.98 4.06 -42.59 -1.91 -33.25 -6.25 C-21.33 -10.29 -9.66 -7.92 0 0 Z M-34.06 13.94 C-36.92 20.7 -36.64 26.91 -34.25 33.75 C-31.96 37.26 -30.09 39.16 -26.25 40.75 C-22.05 41.33 -18.36 41.22 -14.44 39.56 C-10.99 36.71 -8.67 34.02 -7.25 29.75 C-6.74 23.47 -6.58 18.12 -10.25 12.75 C-13.03 9.54 -14.98 8.01 -19.3 7.51 C-25.89 7.3 -29.72 8.69 -34.06 13.94 Z " transform="translate(195.25,171.25)"/>
<path d="M0 0 C5.44 -0.08 10.89 -0.16 16.5 -0.25 C18.2 -0.29 19.9 -0.32 21.66 -0.36 C30.47 -0.47 37.05 -0.27 44.02 5.75 C44.25 6.03 44.25 6.03 45.38 7.44 C45.84 7.99 46.3 8.55 46.77 9.12 C50.65 15.06 50.74 21.1 50 28 C48.8 31.71 47.34 34.9 44.3 37.4 C43 39 43 39 43 41.14 C44.47 45.33 46.74 48.92 49.06 52.69 C49.99 54.21 50.92 55.73 51.85 57.26 C52.26 57.93 52.67 58.6 53.1 59.29 C54 61 54 61 54 63 C36.96 64.37 36.96 64.37 32.58 61.31 C31.04 58.93 29.99 56.66 29 54 C28.22 52.32 27.41 50.65 26.56 49 C26.23 48.26 25.91 47.51 25.57 46.75 C24 45 24 45 17 44 C17 50.27 17 56.54 17 63 C11.39 63 5.78 63 0 63 C0 42.21 0 21.42 0 0 Z M17 15 C17 19.29 17 23.58 17 28 C26.96 28.2 26.96 28.2 30 28 C32.45 25.55 32.77 24.43 33 21 C31.56 17.69 31.56 17.69 30 15 C25.71 15 21.42 15 17 15 Z " transform="translate(215,164)"/>
<path d="M0 0 C17.82 0 35.64 0 54 0 C54 4.95 54 9.9 54 15 C48.06 15 42.12 15 36 15 C36 30.84 36 46.68 36 63 C30.06 63 24.12 63 18 63 C18 47.16 18 31.32 18 15 C12.06 15 6.12 15 0 15 C0 10.05 0 5.1 0 0 Z " transform="translate(271,164)"/>
<path d="M0 0 C7.07 -0.02 14.15 -0.04 21.44 -0.06 C22.56 -0.07 22.56 -0.07 28.21 -0.09 C29.97 -0.09 31.73 -0.1 33.5 -0.1 C34.42 -0.1 35.34 -0.11 36.29 -0.11 C37.17 -0.11 38.04 -0.11 38.94 -0.11 C39.32 -0.11 39.32 -0.11 41.25 -0.12 C43 0 43 0 44 1 C44.14 5.67 44.04 10.33 44 15 C35.42 15.33 26.84 15.66 18 16 C18 18.97 18 21.94 18 25 C24.93 25.33 31.86 25.66 39 26 C39 30.62 39 35.24 39 40 C31.74 40 24.48 40 17 40 C17 47.92 17 55.84 17 64 C11.39 64 5.78 64 0 64 C0 42.88 0 21.76 0 0 Z " transform="translate(88,242)"/>
<path d="M0 0 C0.65 0.41 1.31 0.82 1.98 1.25 C2.68 1.66 3.38 2.07 4.09 2.5 C10.97 7.05 15.27 13.75 17.42 21.69 C18.76 29.43 18 38.38 13.98 45.25 C8.08 53.37 1.02 59.27 -9.02 61.25 C-19.15 62.25 -27.83 60.18 -35.83 53.75 C-42.36 47.44 -46.77 38.99 -47.19 29.83 C-46.48 19.22 -42.89 11.39 -35.02 4.25 C-25.25 -3.68 -11.49 -6.22 0 0 Z M-26.89 18.31 C-29.14 24.18 -29.89 30.57 -27.95 36.62 C-26.1 40.73 -23.78 42.81 -20.02 45.25 C-15.33 46.92 -11.61 46 -7.07 44.34 C-3.87 42.65 -2.58 40.44 -1.02 37.25 C0.72 31.42 0.88 25.57 -1.58 19.94 C-3.99 15.68 -6.49 14.09 -11.02 12.25 C-17.7 11.3 -22.35 13.32 -26.89 18.31 Z " transform="translate(182.015625,244.75)"/>
<path d="M0 0 C5.61 0 11.22 0 17 0 C17 15.84 17 31.68 17 48 C26.57 48 36.14 48 46 48 C46.02 50.45 46.04 52.91 46.06 55.44 C46.07 56.21 46.08 56.99 46.09 57.78 C46.1 59.52 46.05 61.26 46 63 C45 64 45 64 43.17 64.12 C42.77 64.12 42.77 64.12 40.76 64.11 C39.84 64.11 38.93 64.11 37.99 64.11 C37.5 64.11 37.5 64.11 35.06 64.1 C34.17 64.1 33.29 64.1 32.38 64.09 C29.07 64.09 25.75 64.08 22.44 64.06 C15.03 64.04 7.63 64.02 0 64 C0 42.88 0 21.76 0 0 Z " transform="translate(209,242)"/>
<path d="M0 0 C5.94 0 11.88 0 18 0 C18.02 8.2 18.04 16.39 18.05 24.59 C18.06 28.4 18.06 32.2 18.08 36.01 C18.09 39.68 18.09 43.35 18.09 47.02 C18.1 48.42 18.1 49.82 18.11 51.23 C18.11 53.19 18.11 55.14 18.11 57.1 C18.12 58.22 18.12 59.34 18.12 60.49 C18 63 18 63 17 64 C14.32 64.1 11.68 64.14 9 64.12 C8.62 64.13 8.62 64.13 6.73 64.14 C1.13 64.13 1.13 64.13 0 63 C-0.09 61.04 -0.12 59.07 -0.11 57.1 C-0.11 55.84 -0.11 54.58 -0.11 53.28 C-0.11 51.89 -0.1 50.51 -0.1 49.12 C-0.1 47.71 -0.09 46.3 -0.09 44.89 C-0.09 41.17 -0.08 37.45 -0.07 33.73 C-0.06 29.93 -0.05 26.14 -0.05 22.35 C-0.04 14.9 -0.02 7.45 0 0 Z " transform="translate(262,242)"/>
<path d="M0 0 C6.68 5.15 11.27 13.3 12.82 21.6 C13.85 31.1 11.29 40.47 5.36 48.04 C-1.4 54.9 -10 58.61 -19.55 59.04 C-29.02 58.7 -36.47 55.37 -43.24 48.79 C-49.75 41.43 -52.6 32.78 -52.02 22.93 C-50.5 13.49 -45.66 5.52 -38.18 -0.4 C-26.2 -7.78 -11.84 -7.62 0 0 Z M-32.05 15.72 C-34.67 22.41 -34.87 28.9 -32.26 35.62 C-29.96 39.84 -26.92 41.98 -22.37 43.6 C-17.89 43.6 -14.15 42.7 -10.18 40.6 C-5.19 34.6 -4.55 29.13 -5.18 21.6 C-6.39 16.54 -8.82 13.43 -13.18 10.6 C-20.77 8.07 -26.78 9.74 -32.05 15.72 Z " transform="translate(340.1796875,247.40234375)"/>
</svg>
